<?xml version="1.0" encoding="utf-8"?>
<!-- Generator: Adobe Illustrator 24.0.1, SVG Export Plug-In . SVG Version: 6.00 Build 0)  -->
<svg version="1.1" id="Layer_1" xmlns="http://www.w3.org/2000/svg" xmlns:xlink="http://www.w3.org/1999/xlink" x="0px" y="0px"
	 viewBox="0 0 100 100" style="enable-background:new 0 0 100 100;" xml:space="preserve">
<path d="M15,24.6l2.7,15.1c0.2,1.1,0.6,2.1,1.2,3c-2.2,8.5,0.3,17.6,6.5,23.9l0.8,0.8v25.6c0,0.9,0.8,1.7,1.7,1.7h39.4
	c0.9,0,1.7-0.7,1.7-1.7V66.1C69.2,66,82.2,53,82.2,53c3.8-3.8,3.8-10.1,0-13.9l-9.1-9.1c0-0.2-3-17.3-3-17.3
	c-0.4-2.2-1.6-4.1-3.4-5.4c-1.8-1.3-4-1.8-6.2-1.4c-2.2,0.4-4.1,1.6-5.4,3.4C55.1,9.4,55,9.5,55,9.6c-2-2.4-5.2-3.8-8.5-3.2
	c-3.3,0.6-5.9,2.9-6.9,5.9c-1.4-1.1-3.1-1.7-5-1.7c-0.5,0-1,0-1.5,0.1c-2.2,0.4-4.1,1.6-5.4,3.4c-0.6,0.8-1,1.7-1.2,2.6
	c-1.2-0.7-2.6-1.1-4-1.1c-0.4,0-0.9,0-1.3,0.1C17.1,16.4,14.3,20.4,15,24.6z M42.4,34.7c0.2,1.3-0.1,2.6-0.8,3.7
	c-0.8,1.1-1.9,1.8-3.2,2c-0.3,0.1-0.6,0.1-0.9,0.1c-2.4,0-4.4-1.7-4.9-4.1l-2.9-16.7c-0.2-1.3,0.1-2.6,0.8-3.7
	c0.8-1.1,1.9-1.8,3.2-2c0.3-0.1,0.6-0.1,0.9-0.1c2.4,0,4.4,1.7,4.9,4.1L42.4,34.7z M56.4,30.5l-7.8,7.8c-1.5-0.8-2.5-2.2-2.8-3.9
	l-3.2-18.3c-0.5-3,1.5-5.9,4.5-6.5c3-0.5,5.9,1.5,6.5,4.5L56.4,30.5z M69.2,26.8c-3.2-1.5-7-1.2-9.9,0.9L57,14.9
	c-0.2-1.3,0.1-2.6,0.8-3.7c0.8-1.1,1.9-1.8,3.2-2c1.3-0.2,2.6,0.1,3.7,0.8c1.1,0.8,1.8,1.9,2,3.2L69.2,26.8z M21.8,45.2
	c1,0.5,2.2,0.8,3.5,0.8c0.4,0,0.9,0,1.3-0.1c2-0.4,3.8-1.5,5-3.2c0.2-0.3,0.4-0.6,0.6-1c1.5,1.3,3.4,2.1,5.5,2.1c0.5,0,1,0,1.5-0.1
	c2.2-0.4,4.1-1.6,5.4-3.4c0.2-0.2,0.3-0.5,0.5-0.8c0.4,0.4,0.8,0.8,1.3,1.1c0,0-1.6,1.6-1.9,1.9c-2,1.9-3.8,3.7-3.8,6
	c0,1.3,0.6,2.6,1.8,3.9c0.9,0.9,1.8,1.6,2.8,2.1c-1.9,5.6-1.3,11.9,1.8,17c0.3,0.5,0.9,0.8,1.4,0.8c0.3,0,0.6-0.1,0.9-0.2
	c0.8-0.5,1.1-1.5,0.6-2.3c-2.6-4.3-3.1-9.6-1.4-14.4c0.3,0,0.5,0,0.8,0c5.3,0,11.1-4.4,17.2-8.9c0.7-0.6,0.9-1.6,0.3-2.3
	c-0.6-0.7-1.6-0.9-2.3-0.3c-9.4,7.1-14.9,10.9-19.6,6.2c-0.6-0.6-0.9-1.1-0.9-1.5c0-0.9,1.4-2.3,2.8-3.6
	c0.3-0.3,13.9-13.9,13.9-13.9c2.5-2.5,6.6-2.5,9.2,0l10.3,10.3c2.5,2.5,2.5,6.6,0,9.2c0,0-13.2,13.2-13.5,13.4
	c-0.4,0.3-0.7,0.8-0.7,1.3v26.1H29.6V66.8c0-0.4-0.2-0.9-0.5-1.2l-1.3-1.3C22.8,59.2,20.6,52.1,21.8,45.2z M21.8,19
	c0.3,0,0.5-0.1,0.8-0.1c2.1,0,3.9,1.5,4.3,3.6l2.7,15.1c0.2,1.1-0.1,2.3-0.7,3.2s-1.7,1.6-2.8,1.8c-0.3,0-0.5,0.1-0.8,0.1
	c-2.1,0-3.9-1.5-4.3-3.6L18.3,24C17.9,21.7,19.5,19.4,21.8,19z"/>
</svg>
